PathFileType	4	(X/Y/Z)	s04c0303.trc
DataRate	CameraRate	NumFrames	NumMarkers	Units	OrigDataRate	OrigDataStartFrame	OrigNumFrames
200	200	6	50	mm	200	250	2000
Frame#	Time	racr			lacr			c7			jug			rlel			rdr			llel			ldr			s2			lic			ric			lasi			rasi			rpsi			lpsi			rgt			lgt			rth1			rth2			rth3			rth4			rlfc			rmfc			rsh1			rsh2			rsh3			rsh4			rlmal			rmmal			rcal			rtoe			rmt5			lth1			lth2			lth4			lth3			llfc			lmfc			lsh1			lsh2			lsh3			lsh4			llmal			lmmal			lcal			ltoe			lmt5			SBIKE			LBIKE			RBIKE			
		X1	Y1	Z1	X2	Y2	Z2	X3	Y3	Z3	X4	Y4	Z4	X5	Y5	Z5	X6	Y6	Z6	X7	Y7	Z7	X8	Y8	Z8	X9	Y9	Z9	X10	Y10	Z10	X11	Y11	Z11	X12	Y12	Z12	X13	Y13	Z13	X14	Y14	Z14	X15	Y15	Z15	X16	Y16	Z16	X17	Y17	Z17	X18	Y18	Z18	X19	Y19	Z19	X20	Y20	Z20	X21	Y21	Z21	X22	Y22	Z22	X23	Y23	Z23	X24	Y24	Z24	X25	Y25	Z25	X26	Y26	Z26	X27	Y27	Z27	X28	Y28	Z28	X29	Y29	Z29	X30	Y30	Z30	X31	Y31	Z31	X32	Y32	Z32	X33	Y33	Z33	X34	Y34	Z34	X35	Y35	Z35	X36	Y36	Z36	X37	Y37	Z37	X38	Y38	Z38	X39	Y39	Z39	X40	Y40	Z40	X41	Y41	Z41	X42	Y42	Z42	X43	Y43	Z43	X44	Y44	Z44	X45	Y45	Z45	X46	Y46	Z46	X47	Y47	Z47	X48	Y48	Z48	X49	Y49	Z49	X50	Y50	Z50	
250	1.2500	716.693842	1439.057535	-136.887480	717.205336	1415.988276	-434.889173	712.726080	1499.277650	-288.081285	684.454511	1347.705932	-283.756478	547.994061	1166.410905	-26.101490	700.086817	928.668618	-107.961649	605.146642	1165.162323	-572.187294	693.376405	902.260966	-484.822773	140.677193	1313.575542	-351.891891	315.779427	1269.126099	-476.469102	267.446875	1329.443246	-171.173251	337.982367	1217.522953	-419.934039	309.939551	1270.538264	-202.197179	166.126994	1361.535417	-311.075572	183.398805	1348.865620	-390.195262	220.708001	1287.753103	-149.820741	259.844700	1186.219493	-500.622841	327.733571	1164.006376	-125.244007	402.242266	1115.965873	-127.055109	443.432941	1041.055169	-126.455212	426.257988	1139.013191	-145.287110	529.912975	919.958975	-143.380667	510.793764	897.592924	-255.135183	463.330923	813.070106	-117.233952	435.804542	726.729226	-130.330256	369.331905	672.344020	-135.544581	463.477943	712.653327	-152.768884	295.015638	542.205723	-138.849638	316.796236	540.935126	-223.550205	219.730998	533.822173	-176.416564	497.550486	420.063675	-160.270305	425.829547	421.648417	-105.596145	283.468646	1097.034944	-501.342837	325.719550	1021.593543	-493.360104	356.691387	1030.839608	-477.749268	326.434715	932.834391	-497.179647	331.726363	763.101990	-481.362272	346.398108	733.037781	-367.778508	273.613437	643.756783	-497.339885	247.451569	564.242459	-473.156928	183.826585	502.427032	-470.592911	271.637713	554.358167	-443.415911	100.838106	373.085999	-460.015106	108.203944	383.187838	-371.300444	34.312871	409.265560	-415.291790	214.909856	158.237969	-410.830698	144.404465	193.982812	-472.360090	-182.933977	929.917556	-283.453233	-17.190203	80.781240	-485.101635	-17.130352	79.424130	-84.266380	
251	1.2550	718.152792	1435.673189	-135.738033	718.069141	1413.889636	-433.969704	714.361422	1496.579523	-287.495525	685.430002	1345.145913	-283.600228	545.141879	1164.322924	-27.091281	699.062186	928.126121	-108.625870	603.607678	1164.543728	-572.065847	692.079897	901.858691	-485.070282	141.910046	1311.462253	-351.775276	316.952403	1267.292140	-476.638603	268.883122	1327.176309	-170.846256	339.278884	1215.569611	-420.085378	311.652051	1268.662246	-202.263359	167.262648	1359.510022	-310.688066	184.522267	1346.793877	-390.066460	222.301318	1284.813617	-149.660787	261.507207	1183.926661	-501.108807	328.873991	1159.919166	-125.112538	403.078566	1111.417361	-126.824323	443.766899	1036.284489	-126.549149	427.393669	1134.481169	-144.550372	530.032564	914.892570	-143.687267	510.598053	893.072165	-255.077038	463.479233	808.314475	-117.266645	436.758566	721.738528	-130.432162	370.857661	666.669137	-135.735287	464.719149	707.800552	-152.732236	297.834478	535.985983	-138.976907	319.659182	534.951028	-223.637976	222.829918	527.397160	-176.680058	500.947481	414.574986	-160.600319	429.403428	415.951571	-105.973288	284.700124	1095.191139	-501.734699	327.304105	1019.949072	-494.032138	358.288644	1029.257062	-478.581071	328.452312	931.214989	-498.055830	334.620227	762.146926	-481.785134	350.503125	731.862830	-368.605553	275.636733	644.345595	-498.033919	248.242792	565.347117	-473.636245	183.489249	504.706736	-470.756758	272.427329	555.046341	-444.092163	98.205571	377.632007	-459.752172	105.674759	387.756507	-371.072405	31.783270	414.140427	-415.010725	210.809071	162.039336	-410.826846	140.603105	198.439698	-472.468902	-183.167353	929.742282	-284.101279	-17.345360	79.845652	-484.897211	-17.267544	79.306055	-84.336996	
252	1.2600	719.679929	1432.298560	-134.637256	719.051967	1411.745626	-433.155534	716.140819	1493.620413	-286.909537	686.466004	1342.349513	-283.231391	542.316964	1162.364269	-28.167332	697.968552	927.607523	-109.332581	602.006436	1163.889256	-571.717981	690.829511	901.414496	-485.483755	143.132443	1309.158128	-351.571318	318.192756	1265.154158	-476.641777	270.338573	1324.698735	-170.488071	340.555057	1213.428700	-420.214715	313.436592	1266.637069	-202.328754	168.526010	1357.368168	-310.291842	185.620674	1344.448908	-389.561239	223.975496	1281.608779	-149.480701	262.808092	1181.244879	-501.353738	329.954363	1155.640598	-124.932423	403.864994	1106.562966	-126.889328	443.965684	1031.294240	-126.649389	428.427096	1129.766529	-143.813818	528.517703	910.828841	-141.324746	510.628995	888.409469	-255.593952	463.418197	803.460800	-117.950398	437.701842	716.723279	-130.589260	372.389394	661.064057	-135.995178	465.893474	703.220134	-152.617493	300.523126	529.625486	-139.195071	322.358472	529.011806	-223.950135	225.680855	520.970772	-177.207401	504.164826	409.168709	-161.159325	432.697484	410.266555	-106.461725	285.570252	1093.100226	-502.228634	328.624695	1018.049958	-494.794604	359.706064	1027.597531	-479.626239	330.106835	929.280910	-498.736581	337.834604	761.225075	-482.265892	355.140853	730.754677	-369.714905	277.995699	644.828995	-498.782461	249.228872	566.452022	-474.061225	183.415897	506.914702	-470.707988	273.374094	555.720574	-444.702618	95.618021	382.344246	-459.610905	103.204682	392.481469	-370.994523	29.256392	419.063095	-414.676984	206.903959	166.178653	-410.940391	137.005497	203.180893	-472.670714	-183.393760	929.486411	-285.427988	-17.461247	79.436784	-485.061356	-17.429763	79.289229	-84.480410	
253	1.2650	721.206234	1428.998665	-133.651791	720.015140	1409.521580	-432.392347	717.927100	1490.786969	-286.292338	687.454906	1339.691012	-282.919731	539.577903	1160.641536	-29.273465	697.012551	927.336558	-110.092394	600.327905	1163.199887	-571.170630	689.944708	900.832297	-485.730648	144.329988	1306.777163	-351.371670	319.463088	1262.919366	-476.735689	271.980937	1322.404053	-169.415016	341.977327	1211.155980	-420.116615	315.776823	1265.032317	-201.590300	169.864301	1355.032666	-309.709419	186.697526	1341.987950	-388.949395	225.454609	1278.262580	-149.318884	263.784537	1178.333395	-501.496932	331.141405	1151.255955	-124.806121	404.468694	1101.589125	-126.607080	444.085473	1026.032968	-126.769722	429.484015	1124.795049	-143.293970	527.794694	906.440959	-140.607975	510.365668	884.033633	-255.745880	463.458204	798.826561	-117.501107	438.500170	711.821631	-130.709277	373.783432	655.447969	-136.355889	466.897321	698.456030	-152.631389	303.063363	523.163633	-139.727253	324.612076	522.830251	-224.142205	227.833549	514.774348	-177.469910	507.166720	403.689011	-161.587115	435.670403	404.621556	-106.915682	286.207171	1090.738041	-502.688793	329.815869	1016.047498	-495.643830	361.011328	1025.807884	-480.859984	331.891056	927.280233	-499.620913	341.525856	760.413859	-482.964717	360.236246	729.595907	-370.771499	280.563683	645.294345	-499.633466	250.344368	567.609705	-474.591244	183.426556	509.389460	-470.854803	274.384089	556.465295	-445.227997	93.119549	387.457602	-459.630242	100.728945	397.601676	-371.114156	26.915884	424.693697	-414.811045	203.259130	170.842916	-411.184881	133.500583	208.014573	-472.877002	-183.655595	929.239277	-286.641296	-17.580351	79.063224	-485.259381	-17.525572	79.194868	-84.635491	
254	1.2700	722.686307	1425.749779	-132.811845	721.094919	1407.428702	-431.777724	719.635935	1487.847651	-285.398445	688.621187	1336.877655	-282.360703	536.999697	1159.081757	-30.443372	696.267274	927.240203	-110.979420	598.668868	1162.388059	-570.426410	689.455861	900.501301	-486.118694	145.574501	1304.210109	-351.040741	320.745786	1260.718503	-476.667800	273.276788	1319.769302	-169.017098	343.445489	1208.891236	-420.331099	317.557102	1262.866907	-201.401252	171.281998	1352.238615	-309.401601	187.761044	1339.487226	-388.281328	226.780268	1274.741703	-149.210886	264.389774	1175.231572	-501.453100	332.040714	1146.887997	-124.592450	404.996610	1096.751735	-126.335528	444.040194	1020.862856	-126.810824	430.302506	1119.981908	-142.718971	527.707554	901.028045	-142.142132	510.004488	879.616975	-255.860996	463.392618	793.910279	-117.592944	439.192862	706.705764	-130.909353	374.984960	649.825331	-136.871361	467.817884	693.517958	-152.655629	305.248350	516.998584	-140.422451	326.984817	516.722344	-224.768843	230.369787	508.286880	-178.241888	509.993571	398.101225	-161.836489	438.489773	398.959623	-107.220611	286.624770	1088.218612	-502.888704	331.033622	1013.981384	-496.578371	362.332993	1023.983058	-482.176660	333.812205	925.137747	-500.479964	345.460486	759.602586	-483.546009	365.366077	728.356044	-371.921067	283.619258	645.876215	-500.799876	251.699877	568.838408	-475.037355	183.612458	512.070198	-471.151501	275.585762	557.293040	-445.788186	90.755771	392.598087	-459.859277	98.582207	402.801222	-371.405621	24.812187	430.022571	-415.028513	199.962916	175.833969	-411.547234	130.284338	213.192291	-473.249133	-184.004443	928.952763	-287.607508	-17.636529	78.896202	-485.405277	-17.593792	79.193245	-84.790931	
255	1.2750	724.180948	1422.587305	-132.045034	722.342997	1405.390172	-431.359522	721.433471	1485.053163	-284.735004	689.871318	1334.211902	-282.043594	534.583443	1157.592975	-31.652875	695.855881	927.306932	-111.821486	597.004514	1161.437876	-569.523588	689.342638	900.340290	-486.623758	146.809944	1301.372366	-350.344306	322.110996	1258.383752	-476.571073	274.557739	1317.171274	-168.593595	345.371171	1207.538686	-422.379380	319.287925	1260.695431	-201.146238	172.715547	1349.334398	-308.935631	188.854523	1336.946532	-387.337603	228.261428	1271.404441	-149.002053	264.856885	1172.206844	-501.440203	332.671986	1142.482842	-124.755027	405.428852	1091.960894	-126.124224	443.966582	1015.844746	-126.818548	430.935032	1115.077426	-141.785593	527.519049	896.273887	-142.300474	509.629207	875.196688	-255.599358	463.271771	788.832655	-117.821956	439.514727	701.381537	-131.130905	376.011777	644.078483	-137.418684	468.630320	688.631555	-152.821727	307.226866	510.890205	-141.088474	329.529091	510.489681	-225.503728	233.401639	501.464323	-179.302918	512.733357	392.549064	-161.988037	441.067131	393.280634	-107.520749	287.185670	1085.678401	-503.316295	332.437832	1011.893149	-497.618511	363.767584	1022.196423	-483.512538	335.975412	923.048530	-501.506979	349.807697	758.768837	-484.123925	370.679395	726.931021	-373.033088	286.863361	646.399692	-501.671893	253.317611	570.182110	-475.676794	183.768263	515.136995	-471.478927	276.954317	558.179394	-446.509669	88.759944	397.973178	-460.195324	96.409086	408.910553	-372.148526	23.091129	435.913645	-415.588383	196.817913	181.051058	-411.694778	127.291182	218.494235	-473.521765	-184.169748	928.829298	-287.918009	-17.692110	78.846848	-485.519166	-17.646440	79.232251	-84.910163	
